<svg width="599" height="469" viewBox="0 0 599 469" fill="none" xmlns="http://www.w3.org/2000/svg">
<g id="Group 1">
<path id="animate" d="M486.826 290.03C486.251 290.056 485.682 289.905 485.196 289.597C484.709 289.289 484.329 288.839 484.107 288.308C483.885 287.777 483.832 287.191 483.954 286.628C484.077 286.066 484.369 285.554 484.792 285.164L484.984 284.399C484.959 284.338 484.933 284.277 484.907 284.215C484.328 282.847 483.358 281.68 482.117 280.862C480.877 280.044 479.423 279.61 477.937 279.616C476.451 279.621 475 280.066 473.766 280.893C472.532 281.721 471.57 282.894 471.001 284.267C468.726 289.745 465.83 295.233 465.117 301.025C464.803 303.585 464.936 306.18 465.509 308.695C460.167 297.042 457.393 284.376 457.375 271.557C457.374 268.34 457.552 265.125 457.91 261.928C458.206 259.307 458.616 256.705 459.141 254.122C462.004 240.104 468.152 226.965 477.079 215.784C481.4 213.427 484.894 209.802 487.091 205.397C487.886 203.814 488.449 202.124 488.761 200.379C488.273 200.443 486.923 193.02 487.29 192.565C486.611 191.534 485.395 191.022 484.654 190.016C480.964 185.014 475.881 185.887 473.228 192.685C467.559 195.546 467.504 200.29 470.982 204.854C473.195 207.757 473.499 211.685 475.441 214.794C475.241 215.049 475.033 215.297 474.834 215.553C471.182 220.248 467.999 225.29 465.331 230.607C465.98 224.651 465.206 218.626 463.072 213.028C460.909 207.811 456.856 203.417 453.286 198.906C448.998 193.489 440.206 195.853 439.45 202.721C439.443 202.787 439.436 202.854 439.429 202.92C439.959 203.219 440.478 203.537 440.986 203.873C441.624 204.299 442.118 204.908 442.404 205.62C442.69 206.332 442.754 207.114 442.588 207.863C442.422 208.612 442.034 209.293 441.474 209.818C440.914 210.342 440.209 210.686 439.45 210.803L439.373 210.815C439.562 212.725 439.896 214.619 440.372 216.48C435.792 234.19 445.679 240.64 459.796 240.93C460.108 241.09 460.411 241.249 460.723 241.401C458.042 248.998 456.361 256.911 455.721 264.941C455.359 269.678 455.38 274.437 455.785 279.171L455.761 279.004C454.738 273.739 451.93 268.989 447.81 265.556C441.692 260.53 433.048 258.679 426.448 254.639C425.746 254.189 424.931 253.949 424.097 253.947C423.264 253.945 422.447 254.181 421.743 254.628C421.039 255.075 420.478 255.714 420.126 256.469C419.773 257.225 419.644 258.065 419.754 258.891C419.762 258.95 419.771 259.009 419.781 259.068C420.765 259.469 421.723 259.93 422.649 260.45C423.179 260.749 423.698 261.067 424.206 261.403C424.844 261.829 425.338 262.438 425.624 263.15C425.91 263.862 425.975 264.644 425.809 265.393C425.643 266.142 425.254 266.823 424.694 267.348C424.134 267.872 423.429 268.216 422.671 268.333L422.593 268.344C422.537 268.352 422.489 268.36 422.433 268.369C424.115 272.383 426.474 276.078 429.409 279.291C432.272 294.751 444.571 296.218 457.726 291.716H457.734C459.178 297.988 461.269 304.094 463.975 309.934H486.268C486.348 309.686 486.419 309.43 486.491 309.183C484.428 309.312 482.356 309.189 480.323 308.815C481.977 306.786 483.631 304.74 485.285 302.711C485.322 302.673 485.356 302.633 485.389 302.591C486.228 301.552 487.075 300.521 487.914 299.483L487.914 299.481C487.959 296.297 487.593 293.12 486.826 290.03Z" fill="url(#paint0_linear_9_33)"/>
<path id="Vector" d="M553.59 347.797H379.842C368.006 347.797 356.656 352.499 348.287 360.868C339.918 369.237 335.216 380.587 335.216 392.423V466.797H349.216V425.757C349.216 413.922 353.918 402.571 362.287 394.202C370.656 385.833 382.006 381.131 393.842 381.131H539.59C551.426 381.131 562.776 385.833 571.145 394.202C579.514 402.571 584.216 413.922 584.216 425.757V466.797H598.216V392.423C598.216 380.587 593.514 369.237 585.145 360.868C576.776 352.499 565.426 347.797 553.59 347.797Z" fill="#150707"/>
<path id="Vector_2" d="M467.716 366.797C492.845 366.797 513.216 363.887 513.216 360.297C513.216 356.707 492.845 353.797 467.716 353.797C442.587 353.797 422.216 356.707 422.216 360.297C422.216 363.887 442.587 366.797 467.716 366.797Z" fill="#E6E6E6"/>
<path id="Vector_3" d="M502.113 361.927H441.508C426.548 347.589 415.851 333.771 424.415 322.301C424.415 319.004 425.725 315.842 428.056 313.51C430.387 311.179 433.549 309.869 436.847 309.869H506.775C510.072 309.869 513.234 311.179 515.565 313.51C517.896 315.842 519.206 319.004 519.206 322.301C522.467 335.37 516.642 348.581 502.113 361.927Z" fill="#2F2E41"/>
<path id="Vector_4" d="M301.173 147.731C228.865 106.71 256.532 1.08095 177.102 34.7306C73.9596 10.1682 132.587 112.764 41.0305 147.731C36.8375 147.731 32.6857 148.556 28.8119 150.161C24.9382 151.766 21.4184 154.117 18.4535 157.082C15.4887 160.047 13.1368 163.567 11.5323 167.441C9.92769 171.314 9.10181 175.466 9.10181 179.659V179.659C9.10181 183.947 9.96531 188.19 11.6408 192.137C13.3162 196.083 15.7694 199.652 18.8538 202.63C21.9383 205.607 25.5909 207.934 29.5938 209.469C33.5968 211.005 37.868 211.719 42.1527 211.568L54.1018 211.148V311.731H288.102V211.148L300.051 211.568C304.336 211.719 308.607 211.005 312.61 209.469C316.613 207.934 320.265 205.608 323.35 202.63C326.434 199.652 328.887 196.083 330.563 192.137C332.238 188.19 333.102 183.947 333.102 179.659V179.659C333.102 175.466 332.276 171.314 330.671 167.441C329.067 163.567 326.715 160.047 323.75 157.082C320.785 154.117 317.266 151.766 313.392 150.161C309.518 148.556 305.366 147.731 301.173 147.731Z" fill="#E6E6E6"/>
<path id="Vector_5" d="M278.85 358.731H60.3538C57.9 358.731 55.5467 359.705 53.8116 361.44C52.0765 363.176 51.1018 365.529 51.1018 367.983V381.479C51.1018 383.932 52.0765 386.286 53.8116 388.021C55.5467 389.756 57.9 390.731 60.3538 390.731H77.1018V468.731H89.1018V390.731H245.102V468.731H257.102V390.731H278.85C281.304 390.731 283.657 389.756 285.392 388.021C287.127 386.286 288.102 383.932 288.102 381.479V367.983C288.102 365.529 287.127 363.176 285.392 361.44C283.657 359.705 281.304 358.731 278.85 358.731Z" fill="#150707"/>
<path id="Vector_6" d="M323.85 336.731H317.151C319.088 333.388 320.106 329.593 320.102 325.731V197.731C320.102 191.896 317.784 186.3 313.658 182.174C309.532 178.048 303.937 175.731 298.102 175.731C292.267 175.731 286.671 178.048 282.545 182.174C278.42 186.3 276.102 191.896 276.102 197.731V303.525C111.408 280.393 218.737 280.626 70.1018 304.261V197.731C70.1018 191.896 67.784 186.3 63.6582 182.174C59.5324 178.048 53.9366 175.731 48.1018 175.731C42.267 175.731 36.6713 178.048 32.5455 182.174C28.4197 186.3 26.1018 191.896 26.1018 197.731V325.731C26.0975 329.593 27.1155 333.388 29.0523 336.731H15.3538C12.9 336.731 10.5467 337.705 8.81161 339.44C7.07653 341.176 6.10178 343.529 6.10178 345.983V359.479C6.10178 361.932 7.07653 364.286 8.81161 366.021C10.5467 367.756 12.9 368.731 15.3538 368.731H323.85C326.304 368.731 328.657 367.756 330.392 366.021C332.127 364.286 333.102 361.932 333.102 359.479V345.983C333.102 343.529 332.127 341.176 330.392 339.44C328.657 337.705 326.304 336.731 323.85 336.731Z" fill="#605D71"/>
<path id="Vector_7" d="M13.1501 206.006C17.0364 206.36 20.9077 205.184 23.9401 202.728C26.9726 200.272 28.927 196.729 29.3874 192.854C29.4686 192.065 29.4843 191.27 29.4344 190.479L121.045 145.154L98.7899 118.56L12.8317 177.173C9.56467 177.635 6.54218 179.164 4.23592 181.524C1.92967 183.883 0.469403 186.94 0.0830006 190.217C-0.324871 193.987 0.781524 197.764 3.15878 200.718C5.53603 203.672 8.98939 205.561 12.7592 205.969C12.8893 205.983 13.0196 205.995 13.1501 206.006Z" fill="#FFB6B6"/>
<path id="Vector_8" d="M214.456 123.752C214.456 123.752 223.352 106.099 195.574 99.6941C167.795 93.2887 116.509 114.858 113.9 117.321C111.29 119.785 114.68 116.439 106.427 115.156C102.464 114.539 94.5537 107.835 92.9292 113.477C91.3048 119.118 91.754 125.894 87.0007 120.409C82.2474 114.925 100.977 167.302 100.977 167.302C100.977 167.302 103.395 166.914 111.963 162.371C116.775 159.82 116.826 149.226 120.046 152.19C123.265 155.153 151.891 154.65 153.5 154.259C155.109 153.869 162.322 140.588 162.322 140.588L214.456 123.752Z" fill="#2F2E41"/>
<path id="Vector_9" d="M65.5888 452.241L50.3378 449.061L55.3408 388.722L77.8508 393.414L65.5888 452.241Z" fill="#FFB6B6"/>
<path id="Vector_10" d="M62.8101 468.263L15.9099 458.488L16.0334 457.895C17.0427 453.054 19.9336 448.812 24.0704 446.102C28.2072 443.392 33.251 442.436 38.0924 443.444L38.0936 443.445L48.0149 438.731L62.6444 448.562L66.7385 449.415L62.8101 468.263Z" fill="#2F2E41"/>
<path id="Vector_11" d="M328.183 382.304L343.363 378.798L337.063 318.58L314.66 323.754L328.183 382.304Z" fill="#FFB6B6"/>
<path id="Vector_12" d="M331.305 398.263L377.985 387.482L377.848 386.892C376.735 382.074 373.754 377.895 369.56 375.274C365.366 372.654 360.303 371.807 355.484 372.919L355.483 372.919L345.462 368.419L331.048 378.563L326.973 379.504L331.305 398.263Z" fill="#2F2E41"/>
<path id="Vector_13" d="M149.102 243.731L146.484 273.347C146.484 273.347 61.466 246.043 60.4314 310.269C60.1018 330.731 51.1018 409.731 51.1018 409.731L77.1018 413.731C77.1018 413.731 91.1018 392.731 91.1018 385.731C91.1018 378.731 105.102 327.731 105.102 327.731L178.069 320.554C255.102 315.731 279.102 313.731 296.102 258.731C296.102 258.731 306.466 332.317 312.284 338.024C318.102 343.731 322.409 338.057 315.255 345.394C308.102 352.731 303.102 349.731 308.102 352.731C313.102 355.731 343.102 350.731 343.102 350.731C349.802 351.482 341.21 244.257 318.757 212.612C298.721 184.375 229.591 273.109 229.591 273.109L149.102 243.731Z" fill="#2F2E41"/>
<path id="Vector_14" d="M239.186 117.749C239.186 117.749 265.173 114.799 270.708 127.253C276.244 139.707 290.193 165.64 290.193 165.64C290.193 165.64 283.04 168.687 290.345 160.77C293.619 157.222 287.577 159.386 291.729 158.003C295.88 156.619 297.264 158.003 297.264 158.003L311.102 181.527C311.102 181.527 309.989 186.888 302.799 187.062C295.609 187.237 306.95 180.143 297.264 189.83C292.262 194.831 274.102 201.731 274.102 201.731L227.68 159.069L239.186 117.749Z" fill="#2F2E41"/>
<path id="Vector_15" d="M157.237 105.112L183.503 98.3063L195.763 81.3964L224.88 84.9758L231.078 108.041L251.807 120.073C251.807 120.073 240.35 241.254 243.075 247.908C245.8 254.562 239.187 260.129 230.842 268.706C222.497 277.283 237.776 267.713 239.712 277.051C241.649 286.389 255.765 296.272 239.712 296.174C223.659 296.076 135.36 300.533 138.128 289.463C140.895 278.393 132.285 275.363 136.459 268.422C140.632 261.481 143.44 265.36 142.036 255.118C140.632 244.876 142.016 237.957 142.016 232.421C142.016 226.886 146.652 176.587 146.652 176.587L157.237 105.112Z" fill="url(#paint1_linear_9_33)"/>
<path id="Vector_16" d="M251.599 296.382C256.608 305.321 228.392 307.95 197.824 306.747C197.233 304.483 196.255 302.339 194.932 300.409C191.556 295.51 195.638 262.368 190.712 259.02C192.94 264.416 183.931 300.284 182.049 305.806C154.401 303.592 129.202 298.568 129.507 292.59C129.59 290.847 135.36 257.636 138.155 255.117C140.937 252.599 138.128 205.052 138.155 194.853C138.169 184.641 153.349 109.57 153.349 106.802C153.349 104.035 189.328 90.1967 189.328 90.1967L204.55 177.376L227.687 95.3997C229.949 98.4756 232.564 101.276 235.477 103.744C240.113 107.605 258.518 123.408 258.518 123.408L242.756 240.034C242.756 240.034 250.215 257.636 249.827 264.624C249.677 270.169 248.587 275.648 246.603 280.828C244.361 287.401 244.597 283.872 251.599 296.382Z" fill="#2F2E41"/>
<path id="Vector_17" d="M264.126 169.229C265.232 168.348 299.709 157.154 299.709 157.154C299.709 157.154 314.352 178.939 305.503 185.989C296.655 193.038 277.325 194.876 277.325 194.876C277.325 194.876 269.203 190.306 269.394 184.921C269.586 179.536 264.126 169.229 264.126 169.229Z" fill="#2F2E41"/>
<g id="animate2">
<path id="Vector_18" d="M276.356 55.3986C279.24 58.0281 280.983 61.6791 281.216 65.5746C281.449 69.4701 280.152 73.3026 277.602 76.2567C277.074 76.8491 276.498 77.3967 275.88 77.8939L304.227 176.095L269.582 177.608L254.859 74.6146C252.995 71.8919 252.085 68.6288 252.271 65.3346C252.457 62.0404 253.728 58.9004 255.886 56.4046C257.128 54.9963 258.634 53.8462 260.32 53.0202C262.006 52.1942 263.839 51.7084 265.713 51.5905C267.586 51.4726 269.465 51.7249 271.241 52.3331C273.018 52.9412 274.657 53.8933 276.065 55.1349C276.163 55.2215 276.26 55.3093 276.356 55.3986Z" fill="#FFB6B6"/>
<path id="Vector_19" d="M242.792 68.2889L246.54 40.6886C247.06 36.8614 249.674 34.3483 252.368 35.0867L259.068 36.9229C261.762 37.6613 263.531 41.3758 263.011 45.203L259.263 72.8032C258.744 76.6304 256.129 79.1435 253.435 78.4051L246.735 76.5689C244.041 75.8305 242.273 72.116 242.792 68.2889Z" fill="#3F3D56"/>
</g>
<path id="Vector_20" d="M244.649 66.6859L248.469 41.4385C248.999 37.9376 250.905 35.7156 252.718 36.4854L257.227 38.3998C259.04 39.1696 260.084 42.6443 259.554 46.1452L255.735 71.3926C255.205 74.8934 253.299 77.1155 251.486 76.3457L246.977 74.4312C245.164 73.6614 244.12 70.1867 244.649 66.6859Z" fill="url(#paint2_linear_9_33)" fill-opacity="0.85"/>
<path id="Vector_21" d="M173.387 40.4618C175.992 61.4788 190.555 78.8075 211.733 78.8075C216.768 78.8075 221.755 77.8157 226.407 75.8886C231.059 73.9616 235.286 71.1371 238.847 67.5763C242.408 64.0156 245.232 59.7884 247.159 55.1361C249.086 50.4838 250.078 45.4975 250.078 40.4618C250.078 19.2841 232.82 4.07412 211.733 2.11614C189.358 0.0386022 170.043 13.4787 173.387 40.4618Z" fill="#2F2E41"/>
<path id="Vector_22" d="M215.971 81.0845C234.751 81.0845 249.975 65.8607 249.975 47.0812C249.975 28.3016 234.751 13.0778 215.971 13.0778C197.192 13.0778 181.968 28.3016 181.968 47.0812C181.968 65.8607 197.192 81.0845 215.971 81.0845Z" fill="#FFB6B6"/>
<path id="Vector_23" d="M180.761 50.7857C181.838 58.1746 188.135 68.4837 186.66 68.4837C185.186 68.4837 174.7 38.0234 185.186 36.0373C192.792 34.5967 194.492 35.8603 201.6 32.7779L200.598 33.7218C205.302 37.1434 211.851 35.0344 217.219 32.8074C222.602 30.5952 229.136 28.4862 233.855 31.893C236.82 34.0316 238.073 37.7481 239.917 40.9042C241.76 44.0752 245.167 47.069 248.677 46.0957C251.494 45.314 253.116 42.1578 253.102 39.2377C253.087 36.3176 249.284 33.5396 250.565 30.9196C254.36 23.1554 250.947 17.8633 242.675 14.2098C239.666 13.7526 236.657 13.2856 233.649 12.8087C235.225 10.625 237.137 8.70373 239.312 7.11584C238.191 4.82978 236.908 2.52903 234.74 1.26069C232.336 -0.169846 229.357 -0.0666759 226.569 0.0808541C220.346 0.405274 214.127 0.729717 207.913 1.0542C203.311 1.2902 198.548 1.57044 194.433 3.67944C189.3 6.31936 185.938 11.4665 183.49 16.7023C178.003 28.4714 178.873 37.9399 180.761 50.7857Z" fill="#2F2E41"/>
</g>
<defs>
<linearGradient id="paint0_linear_9_33" x1="454.238" y1="186.826" x2="381.078" y2="390.5" gradientUnits="userSpaceOnUse">
<stop stop-color="#A82727"/>
<stop offset="1" stop-color="#8988DC" stop-opacity="0"/>
</linearGradient>
<linearGradient id="paint1_linear_9_33" x1="210" y1="123.5" x2="94.5" y2="378" gradientUnits="userSpaceOnUse">
<stop stop-color="#A82727"/>
<stop offset="1" stop-color="#677DCC" stop-opacity="0"/>
</linearGradient>
<linearGradient id="paint2_linear_9_33" x1="260.078" y1="26" x2="253.578" y2="72.5" gradientUnits="userSpaceOnUse">
<stop stop-color="#A82727"/>
<stop offset="1" stop-color="#A82727" stop-opacity="0"/>
</linearGradient>
</defs>
</svg>
